<svg width="148" height="20" viewBox="0 0 148 20" fill="none" xmlns="http://www.w3.org/2000/svg">
<path d="M10.015 0.5H137.985C143.241 0.5 147.5 4.754 147.5 10C147.5 15.246 143.241 19.5 137.985 19.5H10.015C4.75932 19.5 0.5 15.246 0.5 10C0.5 4.754 4.75932 0.5 10.015 0.5Z" fill="white"/>
<path d="M10.015 0.5H137.985C143.241 0.5 147.5 4.754 147.5 10C147.5 15.246 143.241 19.5 137.985 19.5H10.015C4.75932 19.5 0.5 15.246 0.5 10C0.5 4.754 4.75932 0.5 10.015 0.5Z" fill="url(#paint0_linear_127_148)"/>
<path d="M10.015 0.5H137.985C143.241 0.5 147.5 4.754 147.5 10C147.5 15.246 143.241 19.5 137.985 19.5H10.015C4.75932 19.5 0.5 15.246 0.5 10C0.5 4.754 4.75932 0.5 10.015 0.5Z" stroke="#141C2E"/>
<path d="M27.7778 13.7724V5.64613H29.9523C31.1949 5.64613 32.164 5.98162 32.8599 6.6526C33.5557 7.32358 33.9036 8.33005 33.9036 9.672C33.9036 11.0222 33.5599 12.0453 32.8723 12.7411C32.1848 13.4287 31.2363 13.7724 30.0269 13.7724H27.7778ZM29.2192 12.6044H29.8529C30.673 12.6044 31.3067 12.3683 31.754 11.8962C32.2013 11.4157 32.425 10.6743 32.425 9.672C32.425 8.67796 32.2013 7.95314 31.754 7.49753C31.3067 7.04193 30.673 6.81413 29.8529 6.81413H29.2192V12.6044Z" fill="#E6EAF2"/>
<path d="M38.0289 13.9215C37.4656 13.9215 36.9562 13.7973 36.5006 13.5488C36.045 13.292 35.6846 12.9275 35.4195 12.4553C35.1545 11.9749 35.0219 11.3992 35.0219 10.7282C35.0219 10.0655 35.1545 9.4939 35.4195 9.01345C35.6929 8.533 36.045 8.16437 36.4757 7.90758C36.9065 7.65078 37.3579 7.52238 37.8301 7.52238C38.3851 7.52238 38.849 7.64664 39.2218 7.89515C39.5945 8.13538 39.8762 8.47501 40.0667 8.91404C40.2572 9.3448 40.3525 9.84596 40.3525 10.4175C40.3525 10.7157 40.3318 10.9477 40.2903 11.1134H36.4136C36.4799 11.6518 36.6745 12.0701 36.9976 12.3683C37.3206 12.6666 37.7265 12.8157 38.2153 12.8157C38.4804 12.8157 38.7247 12.7784 38.9484 12.7038C39.1803 12.621 39.4081 12.5092 39.6318 12.3683L40.1164 13.263C39.8265 13.4535 39.5034 13.6109 39.1472 13.7352C38.791 13.8594 38.4182 13.9215 38.0289 13.9215ZM36.4012 10.1442H39.1099C39.1099 9.672 39.0064 9.30338 38.7993 9.0383C38.5922 8.76494 38.2816 8.62826 37.8674 8.62826C37.5112 8.62826 37.1922 8.7608 36.9106 9.02588C36.6372 9.28267 36.4674 9.65544 36.4012 10.1442Z" fill="#E6EAF2"/>
<path d="M41.7172 16.183V7.67149H42.8977L42.9971 8.31762H43.0468C43.3036 8.10224 43.5894 7.91586 43.9041 7.75847C44.2272 7.60108 44.5544 7.52238 44.8858 7.52238C45.6479 7.52238 46.236 7.80403 46.6502 8.36732C47.0727 8.93061 47.2839 9.68443 47.2839 10.6288C47.2839 11.3246 47.1596 11.921 46.9111 12.418C46.6626 12.9068 46.3396 13.2796 45.9419 13.5363C45.5526 13.7931 45.1301 13.9215 44.6745 13.9215C44.4095 13.9215 44.1444 13.8636 43.8793 13.7476C43.6142 13.6233 43.3574 13.4577 43.1089 13.2506L43.1462 14.2695V16.183H41.7172ZM44.3763 12.7411C44.7822 12.7411 45.1218 12.563 45.3952 12.2068C45.6686 11.8506 45.8053 11.3287 45.8053 10.6412C45.8053 10.0282 45.7017 9.55189 45.4946 9.21226C45.2875 8.87263 44.952 8.70281 44.4881 8.70281C44.0574 8.70281 43.6101 8.93061 43.1462 9.38622V12.2317C43.3698 12.4139 43.5852 12.5464 43.7923 12.6293C43.9994 12.7038 44.1941 12.7411 44.3763 12.7411Z" fill="#E6EAF2"/>
<path d="M50.1225 13.9215C49.6172 13.9215 49.2569 13.7683 49.0415 13.4618C48.8344 13.1553 48.7309 12.737 48.7309 12.2068V5H50.1598V12.2814C50.1598 12.4553 50.193 12.5796 50.2592 12.6541C50.3255 12.7204 50.3959 12.7535 50.4705 12.7535C50.5036 12.7535 50.5326 12.7535 50.5574 12.7535C50.5906 12.7453 50.6361 12.737 50.6941 12.7287L50.8805 13.7973C50.7977 13.8304 50.69 13.8594 50.5574 13.8843C50.4332 13.9091 50.2882 13.9215 50.1225 13.9215Z" fill="#E6EAF2"/>
<path d="M54.6018 13.9215C54.0965 13.9215 53.6243 13.7973 53.1852 13.5488C52.7462 13.292 52.39 12.9275 52.1166 12.4553C51.8433 11.9749 51.7066 11.3992 51.7066 10.7282C51.7066 10.0489 51.8433 9.47319 52.1166 9.00102C52.39 8.52057 52.7462 8.15609 53.1852 7.90758C53.6243 7.65078 54.0965 7.52238 54.6018 7.52238C55.1153 7.52238 55.5917 7.65078 56.0307 7.90758C56.4697 8.15609 56.8259 8.52057 57.0993 9.00102C57.3727 9.47319 57.5093 10.0489 57.5093 10.7282C57.5093 11.3992 57.3727 11.9749 57.0993 12.4553C56.8259 12.9275 56.4697 13.292 56.0307 13.5488C55.5917 13.7973 55.1153 13.9215 54.6018 13.9215ZM54.6018 12.7535C55.0491 12.7535 55.4011 12.5672 55.6579 12.1944C55.9147 11.8216 56.0431 11.3329 56.0431 10.7282C56.0431 10.1152 55.9147 9.6223 55.6579 9.24953C55.4011 8.87677 55.0491 8.69039 54.6018 8.69039C54.1544 8.69039 53.8024 8.87677 53.5456 9.24953C53.2971 9.6223 53.1728 10.1152 53.1728 10.7282C53.1728 11.3329 53.2971 11.8216 53.5456 12.1944C53.8024 12.5672 54.1544 12.7535 54.6018 12.7535Z" fill="#E6EAF2"/>
<path d="M59.2609 16.2824C59.0953 16.2824 58.9503 16.27 58.8261 16.2451C58.7018 16.2203 58.5817 16.1913 58.4657 16.1581L58.7267 15.0398C58.7846 15.0564 58.8509 15.073 58.9255 15.0895C59.0083 15.1144 59.087 15.1268 59.1615 15.1268C59.4846 15.1268 59.7414 15.0274 59.9319 14.8286C60.1307 14.6381 60.2798 14.3896 60.3792 14.0831L60.4911 13.6979L58.0929 7.67149H59.5467L60.6029 10.666C60.694 10.9311 60.781 11.2128 60.8638 11.511C60.955 11.8009 61.0461 12.0908 61.1372 12.3808H61.1869C61.2615 12.0991 61.336 11.8133 61.4106 11.5234C61.4934 11.2252 61.5721 10.9394 61.6467 10.666L62.5661 7.67149H63.9454L61.7336 14.0458C61.4768 14.7333 61.1662 15.2759 60.8017 15.6735C60.4372 16.0794 59.9236 16.2824 59.2609 16.2824Z" fill="#E6EAF2"/>
<path d="M69.9881 13.9215C69.4828 13.9215 69.0106 13.7973 68.5716 13.5488C68.1325 13.292 67.7763 12.9275 67.503 12.4553C67.2296 11.9749 67.0929 11.3992 67.0929 10.7282C67.0929 10.0489 67.2296 9.47319 67.503 9.00102C67.7763 8.52057 68.1325 8.15609 68.5716 7.90758C69.0106 7.65078 69.4828 7.52238 69.9881 7.52238C70.5017 7.52238 70.978 7.65078 71.417 7.90758C71.856 8.15609 72.2122 8.52057 72.4856 9.00102C72.759 9.47319 72.8956 10.0489 72.8956 10.7282C72.8956 11.3992 72.759 11.9749 72.4856 12.4553C72.2122 12.9275 71.856 13.292 71.417 13.5488C70.978 13.7973 70.5017 13.9215 69.9881 13.9215ZM69.9881 12.7535C70.4354 12.7535 70.7874 12.5672 71.0442 12.1944C71.301 11.8216 71.4294 11.3329 71.4294 10.7282C71.4294 10.1152 71.301 9.6223 71.0442 9.24953C70.7874 8.87677 70.4354 8.69039 69.9881 8.69039C69.5407 8.69039 69.1887 8.87677 68.9319 9.24953C68.6834 9.6223 68.5591 10.1152 68.5591 10.7282C68.5591 11.3329 68.6834 11.8216 68.9319 12.1944C69.1887 12.5672 69.5407 12.7535 69.9881 12.7535Z" fill="#E6EAF2"/>
<path d="M74.31 13.7724V7.67149H75.4904L75.5899 8.49158H75.6396C75.9129 8.2265 76.2111 7.9987 76.5342 7.80817C76.8573 7.61765 77.2259 7.52238 77.6401 7.52238C78.2945 7.52238 78.7708 7.73362 79.069 8.15609C79.3672 8.57856 79.5163 9.17498 79.5163 9.94536V13.7724H78.0874V10.1317C78.0874 9.62644 78.0128 9.27024 77.8637 9.06315C77.7146 8.85606 77.4703 8.75251 77.1306 8.75251C76.8655 8.75251 76.6295 8.81878 76.4224 8.95132C76.2236 9.07558 75.9958 9.26196 75.739 9.51047V13.7724H74.31Z" fill="#E6EAF2"/>
<path d="M83.8748 13.7724V5.64613H85.3161V8.91404H88.6089V5.64613H90.0503V13.7724H88.6089V10.169H85.3161V13.7724H83.8748Z" fill="#E6EAF2"/>
<path d="M92.114 13.7724V5.64613H97.0221V6.86383H93.5553V9.16256H96.5126V10.3803H93.5553V13.7724H92.114Z" fill="#E6EAF2"/>
<path d="M103.309 13.9215C102.762 13.9215 102.232 13.818 101.718 13.6109C101.213 13.4038 100.766 13.1097 100.376 12.7287L101.221 11.7471C101.511 12.0204 101.843 12.2441 102.215 12.418C102.588 12.5837 102.961 12.6666 103.334 12.6666C103.798 12.6666 104.15 12.5713 104.39 12.3808C104.63 12.1902 104.75 11.9376 104.75 11.6228C104.75 11.2832 104.63 11.0388 104.39 10.8897C104.158 10.7406 103.86 10.5874 103.495 10.43L102.377 9.94536C102.112 9.82939 101.851 9.68029 101.594 9.49805C101.346 9.3158 101.139 9.08386 100.973 8.80222C100.816 8.52057 100.737 8.18094 100.737 7.78332C100.737 7.35257 100.853 6.96738 101.085 6.62775C101.325 6.27983 101.648 6.00647 102.054 5.80766C102.468 5.60057 102.94 5.49702 103.47 5.49702C103.943 5.49702 104.398 5.59228 104.837 5.78281C105.276 5.96505 105.653 6.21356 105.968 6.52834L105.235 7.44783C104.978 7.23246 104.705 7.06264 104.415 6.93838C104.133 6.81413 103.818 6.752 103.47 6.752C103.089 6.752 102.779 6.83898 102.539 7.01294C102.307 7.17861 102.191 7.41055 102.191 7.70877C102.191 7.91586 102.249 8.08982 102.365 8.23064C102.489 8.36318 102.65 8.47915 102.849 8.57856C103.048 8.66968 103.259 8.7608 103.483 8.85192L104.589 9.31166C105.069 9.51875 105.463 9.79212 105.769 10.1317C106.076 10.4631 106.229 10.9228 106.229 11.511C106.229 11.95 106.113 12.3518 105.881 12.7163C105.649 13.0807 105.314 13.3748 104.875 13.5985C104.444 13.8138 103.922 13.9215 103.309 13.9215Z" fill="#E6EAF2"/>
<path d="M107.582 16.183V7.67149H108.763L108.862 8.31762H108.912C109.169 8.10224 109.454 7.91586 109.769 7.75847C110.092 7.60108 110.419 7.52238 110.751 7.52238C111.513 7.52238 112.101 7.80403 112.515 8.36732C112.938 8.93061 113.149 9.68443 113.149 10.6288C113.149 11.3246 113.025 11.921 112.776 12.418C112.528 12.9068 112.205 13.2796 111.807 13.5363C111.418 13.7931 110.995 13.9215 110.54 13.9215C110.275 13.9215 110.009 13.8636 109.744 13.7476C109.479 13.6233 109.222 13.4577 108.974 13.2506L109.011 14.2695V16.183H107.582ZM110.241 12.7411C110.647 12.7411 110.987 12.563 111.26 12.2068C111.534 11.8506 111.67 11.3287 111.67 10.6412C111.67 10.0282 111.567 9.55189 111.36 9.21226C111.153 8.87263 110.817 8.70281 110.353 8.70281C109.922 8.70281 109.475 8.93061 109.011 9.38622V12.2317C109.235 12.4139 109.45 12.5464 109.657 12.6293C109.864 12.7038 110.059 12.7411 110.241 12.7411Z" fill="#E6EAF2"/>
<path d="M115.929 13.9215C115.399 13.9215 114.964 13.7559 114.624 13.4245C114.293 13.0932 114.127 12.6624 114.127 12.1323C114.127 11.4778 114.413 10.9725 114.985 10.6163C115.556 10.2519 116.467 10.0034 117.718 9.87081C117.71 9.54775 117.623 9.27024 117.457 9.0383C117.3 8.79807 117.014 8.67796 116.6 8.67796C116.302 8.67796 116.008 8.73595 115.718 8.85192C115.436 8.96789 115.159 9.10871 114.885 9.27439L114.363 8.31762C114.703 8.10224 115.084 7.91586 115.507 7.75847C115.937 7.60108 116.393 7.52238 116.873 7.52238C117.635 7.52238 118.203 7.75019 118.576 8.20579C118.957 8.65311 119.147 9.30338 119.147 10.1566V13.7724H117.967L117.867 13.1015H117.818C117.544 13.3334 117.25 13.5281 116.935 13.6855C116.629 13.8428 116.293 13.9215 115.929 13.9215ZM116.389 12.8032C116.637 12.8032 116.861 12.7453 117.06 12.6293C117.267 12.505 117.486 12.3394 117.718 12.1323V10.7655C116.89 10.8731 116.314 11.0347 115.991 11.25C115.668 11.4571 115.507 11.7139 115.507 12.0204C115.507 12.2938 115.589 12.4926 115.755 12.6169C115.921 12.7411 116.132 12.8032 116.389 12.8032Z" fill="#E6EAF2"/>
<path d="M123.404 13.9215C122.849 13.9215 122.348 13.7973 121.901 13.5488C121.462 13.292 121.11 12.9275 120.845 12.4553C120.588 11.9749 120.46 11.3992 120.46 10.7282C120.46 10.0489 120.6 9.47319 120.882 9.00102C121.164 8.52057 121.537 8.15609 122 7.90758C122.473 7.65078 122.978 7.52238 123.516 7.52238C123.906 7.52238 124.245 7.58865 124.535 7.72119C124.825 7.85373 125.082 8.01526 125.306 8.20579L124.61 9.1377C124.452 8.99688 124.291 8.88919 124.125 8.81464C123.959 8.7318 123.781 8.69039 123.591 8.69039C123.102 8.69039 122.7 8.87677 122.386 9.24953C122.079 9.6223 121.926 10.1152 121.926 10.7282C121.926 11.3329 122.075 11.8216 122.373 12.1944C122.68 12.5672 123.073 12.7535 123.554 12.7535C123.794 12.7535 124.017 12.7038 124.225 12.6044C124.44 12.4967 124.635 12.3725 124.809 12.2317L125.393 13.176C125.111 13.4245 124.796 13.6109 124.448 13.7352C124.1 13.8594 123.752 13.9215 123.404 13.9215Z" fill="#E6EAF2"/>
<path d="M128.903 13.9215C128.34 13.9215 127.83 13.7973 127.374 13.5488C126.919 13.292 126.559 12.9275 126.293 12.4553C126.028 11.9749 125.896 11.3992 125.896 10.7282C125.896 10.0655 126.028 9.4939 126.293 9.01345C126.567 8.533 126.919 8.16437 127.35 7.90758C127.78 7.65078 128.232 7.52238 128.704 7.52238C129.259 7.52238 129.723 7.64664 130.096 7.89515C130.468 8.13538 130.75 8.47501 130.941 8.91404C131.131 9.3448 131.226 9.84596 131.226 10.4175C131.226 10.7157 131.206 10.9477 131.164 11.1134H127.287C127.354 11.6518 127.548 12.0701 127.871 12.3683C128.195 12.6666 128.6 12.8157 129.089 12.8157C129.354 12.8157 129.599 12.7784 129.822 12.7038C130.054 12.621 130.282 12.5092 130.506 12.3683L130.99 13.263C130.7 13.4535 130.377 13.6109 130.021 13.7352C129.665 13.8594 129.292 13.9215 128.903 13.9215ZM127.275 10.1442H129.984C129.984 9.672 129.88 9.30338 129.673 9.0383C129.466 8.76494 129.155 8.62826 128.741 8.62826C128.385 8.62826 128.066 8.7608 127.785 9.02588C127.511 9.28267 127.341 9.65544 127.275 10.1442Z" fill="#E6EAF2"/>
<path d="M134.293 13.9215C133.879 13.9215 133.465 13.8428 133.051 13.6855C132.637 13.5198 132.281 13.3168 131.982 13.0766L132.653 12.1571C132.927 12.3642 133.2 12.5299 133.473 12.6541C133.747 12.7784 134.037 12.8405 134.343 12.8405C134.674 12.8405 134.919 12.7701 135.076 12.6293C135.234 12.4885 135.312 12.3145 135.312 12.1074C135.312 11.9335 135.246 11.7926 135.114 11.6849C134.989 11.569 134.828 11.4696 134.629 11.3867C134.43 11.2956 134.223 11.2086 134.008 11.1258C133.743 11.0264 133.477 10.9063 133.212 10.7655C132.956 10.6163 132.744 10.43 132.579 10.2063C132.413 9.97436 132.33 9.68857 132.33 9.34894C132.33 8.8105 132.529 8.37146 132.927 8.03183C133.324 7.6922 133.863 7.52238 134.542 7.52238C134.973 7.52238 135.358 7.59694 135.698 7.74604C136.037 7.89515 136.331 8.06497 136.58 8.25549L135.921 9.12528C135.706 8.96789 135.486 8.84363 135.263 8.75251C135.047 8.65311 134.819 8.60341 134.579 8.60341C134.273 8.60341 134.045 8.66968 133.896 8.80222C133.747 8.92647 133.672 9.08386 133.672 9.27439C133.672 9.51461 133.796 9.69685 134.045 9.82111C134.293 9.94537 134.583 10.0655 134.915 10.1815C135.196 10.2809 135.47 10.4051 135.735 10.5542C136 10.695 136.219 10.8814 136.393 11.1134C136.576 11.3453 136.667 11.6518 136.667 12.0329C136.667 12.5547 136.464 13.002 136.058 13.3748C135.652 13.7393 135.064 13.9215 134.293 13.9215Z" fill="#E6EAF2"/>
<path d="M13.3883 10.2964V12.2519H15.3467V10.2964H13.3883Z" fill="#FF3270"/>
<path d="M17.3224 10.2964V12.2519H19.2808V10.2964H17.3224Z" fill="#861FFF"/>
<path d="M13.3883 6.36841V8.32389H15.3467V6.36841H13.3883Z" fill="#097EFF"/>
<path fill-rule="evenodd" clip-rule="evenodd" d="M12.0181 5.86838C12.0181 5.38879 12.4074 5 12.8878 5H15.8474C16.2492 5 16.5873 5.27198 16.6872 5.64158C17.1081 5.24388 17.6764 5 18.3016 5C19.5992 5 20.6512 6.05034 20.6512 7.34598C20.6512 7.97032 20.4069 8.5377 20.0086 8.95804C20.3788 9.05778 20.6512 9.39536 20.6512 9.79652V12.7517C20.6512 13.2313 20.2618 13.6202 19.7814 13.6202H16.7171H15.9521H12.8878C12.4074 13.6202 12.0181 13.2313 12.0181 12.7517V9.00785V8.92812V5.86838ZM13.3884 6.36826V8.32375H15.3468V6.36826H13.3884ZM13.3884 12.2519V10.2964H15.3468V12.2519H13.3884ZM17.3224 12.2519V10.2964H19.2808V12.2519H17.3224ZM17.3224 7.34598C17.3224 6.80601 17.7609 6.36826 18.3016 6.36826C18.8424 6.36826 19.2808 6.80601 19.2808 7.34598C19.2808 7.88599 18.8424 8.32375 18.3016 8.32375C17.7609 8.32375 17.3224 7.88599 17.3224 7.34598Z" fill="black"/>
<path d="M18.3016 6.36841C17.7608 6.36841 17.3224 6.80616 17.3224 7.34617C17.3224 7.88614 17.7608 8.32389 18.3016 8.32389C18.8424 8.32389 19.2808 7.88614 19.2808 7.34617C19.2808 6.80616 18.8424 6.36841 18.3016 6.36841Z" fill="#FFD702"/>
<defs>
<linearGradient id="paint0_linear_127_148" x1="-7.38255e-08" y1="10" x2="60.5535" y2="10" gradientUnits="userSpaceOnUse">
<stop stop-color="#172033"/>
<stop offset="1" stop-color="#0B0F19"/>
</linearGradient>
</defs>
</svg>
