<svg width="178" height="24" viewBox="0 0 178 24" fill="none" xmlns="http://www.w3.org/2000/svg">
<path d="M12 0.5H165.333C171.685 0.5 176.833 5.64873 176.833 12C176.833 18.3513 171.685 23.5 165.333 23.5H12C5.64871 23.5 0.5 18.3513 0.5 12C0.5 5.64873 5.64873 0.5 12 0.5Z" fill="url(#paint0_linear_127_149)"/>
<path d="M12 0.5H165.333C171.685 0.5 176.833 5.64873 176.833 12C176.833 18.3513 171.685 23.5 165.333 23.5H12C5.64871 23.5 0.5 18.3513 0.5 12C0.5 5.64873 5.64873 0.5 12 0.5Z" fill="url(#paint1_linear_127_149)"/>
<path d="M12 0.5H165.333C171.685 0.5 176.833 5.64873 176.833 12C176.833 18.3513 171.685 23.5 165.333 23.5H12C5.64871 23.5 0.5 18.3513 0.5 12C0.5 5.64873 5.64873 0.5 12 0.5Z" stroke="#141C2E"/>
<path d="M12 0.5H165.333C171.685 0.5 176.833 5.64873 176.833 12C176.833 18.3513 171.685 23.5 165.333 23.5H12C5.64871 23.5 0.5 18.3513 0.5 12C0.5 5.64873 5.64873 0.5 12 0.5Z" stroke="#141C2E"/>
<path d="M34 16.5269V6.77535H36.6094C38.1004 6.77535 39.2635 7.17794 40.0985 7.98312C40.9335 8.78829 41.351 9.99605 41.351 11.6064C41.351 13.2267 40.9384 14.4543 40.1134 15.2893C39.2883 16.1144 38.1501 16.5269 36.6988 16.5269H34ZM35.7296 15.1253H36.4901C37.4742 15.1253 38.2346 14.842 38.7714 14.2754C39.3082 13.6989 39.5766 12.8092 39.5766 11.6064C39.5766 10.4136 39.3082 9.54376 38.7714 8.99704C38.2346 8.45032 37.4742 8.17696 36.4901 8.17696H35.7296V15.1253Z" fill="#E6EAF2"/>
<path d="M46.3013 16.7058C45.6253 16.7058 45.014 16.5567 44.4673 16.2585C43.9206 15.9504 43.4881 15.513 43.17 14.9464C42.852 14.3698 42.6929 13.679 42.6929 12.8738C42.6929 12.0786 42.852 11.3927 43.17 10.8161C43.4981 10.2396 43.9206 9.79724 44.4375 9.48909C44.9544 9.18094 45.4961 9.02686 46.0627 9.02686C46.7287 9.02686 47.2854 9.17597 47.7327 9.47418C48.18 9.76245 48.518 10.17 48.7466 10.6969C48.9753 11.2138 49.0896 11.8152 49.0896 12.501C49.0896 12.8589 49.0647 13.1372 49.015 13.336H44.3629C44.4424 13.9822 44.676 14.4842 45.0637 14.842C45.4514 15.1999 45.9385 15.3788 46.5249 15.3788C46.843 15.3788 47.1363 15.3341 47.4047 15.2446C47.683 15.1452 47.9564 15.011 48.2248 14.842L48.8063 15.9156C48.4584 16.1442 48.0707 16.3331 47.6432 16.4822C47.2158 16.6313 46.7685 16.7058 46.3013 16.7058ZM44.348 12.173H47.5985C47.5985 11.6064 47.4743 11.1641 47.2257 10.846C46.9772 10.5179 46.6045 10.3539 46.1074 10.3539C45.68 10.3539 45.2973 10.513 44.9593 10.831C44.6313 11.1392 44.4275 11.5865 44.348 12.173Z" fill="#E6EAF2"/>
<path d="M50.7273 19.4196V9.20579H52.1438L52.2631 9.98114H52.3227C52.6309 9.72269 52.9738 9.49903 53.3516 9.31016C53.7393 9.1213 54.1319 9.02686 54.5295 9.02686C55.444 9.02686 56.1498 9.36484 56.6468 10.0408C57.1538 10.7167 57.4073 11.6213 57.4073 12.7545C57.4073 13.5895 57.2582 14.3052 56.96 14.9017C56.6617 15.4881 56.2741 15.9355 55.7969 16.2436C55.3297 16.5518 54.8228 16.7058 54.276 16.7058C53.9579 16.7058 53.6398 16.6363 53.3218 16.4971C53.0037 16.348 52.6955 16.1492 52.3973 15.9007L52.442 17.1233V19.4196H50.7273ZM53.9182 15.2893C54.4053 15.2893 54.8128 15.0756 55.1409 14.6482C55.4689 14.2207 55.6329 13.5945 55.6329 12.7694C55.6329 12.0338 55.5086 11.4623 55.2601 11.0547C55.0116 10.6472 54.609 10.4434 54.0524 10.4434C53.5355 10.4434 52.9987 10.7167 52.442 11.2635V14.678C52.7104 14.8967 52.9689 15.0557 53.2174 15.1551C53.4659 15.2446 53.6995 15.2893 53.9182 15.2893Z" fill="#E6EAF2"/>
<path d="M60.8137 16.7058C60.2073 16.7058 59.7749 16.5219 59.5164 16.1542C59.2679 15.7864 59.1437 15.2844 59.1437 14.6482V6H60.8584V14.7376C60.8584 14.9464 60.8982 15.0955 60.9777 15.185C61.0572 15.2645 61.1417 15.3042 61.2312 15.3042C61.2709 15.3042 61.3057 15.3042 61.3355 15.3042C61.3753 15.2943 61.43 15.2844 61.4995 15.2744L61.7232 16.5567C61.6238 16.5965 61.4946 16.6313 61.3355 16.6611C61.1864 16.6909 61.0125 16.7058 60.8137 16.7058Z" fill="#E6EAF2"/>
<path d="M66.1887 16.7058C65.5823 16.7058 65.0157 16.5567 64.4889 16.2585C63.9621 15.9504 63.5346 15.513 63.2066 14.9464C62.8785 14.3698 62.7145 13.679 62.7145 12.8738C62.7145 12.0587 62.8785 11.3678 63.2066 10.8012C63.5346 10.2247 63.9621 9.7873 64.4889 9.48909C65.0157 9.18094 65.5823 9.02686 66.1887 9.02686C66.805 9.02686 67.3766 9.18094 67.9034 9.48909C68.4303 9.7873 68.8577 10.2247 69.1858 10.8012C69.5138 11.3678 69.6778 12.0587 69.6778 12.8738C69.6778 13.679 69.5138 14.3698 69.1858 14.9464C68.8577 15.513 68.4303 15.9504 67.9034 16.2585C67.3766 16.5567 66.805 16.7058 66.1887 16.7058ZM66.1887 15.3042C66.7255 15.3042 67.148 15.0806 67.4561 14.6333C67.7643 14.1859 67.9183 13.5995 67.9183 12.8738C67.9183 12.1382 67.7643 11.5468 67.4561 11.0994C67.148 10.6521 66.7255 10.4285 66.1887 10.4285C65.6519 10.4285 65.2295 10.6521 64.9213 11.0994C64.6231 11.5468 64.474 12.1382 64.474 12.8738C64.474 13.5995 64.6231 14.1859 64.9213 14.6333C65.2295 15.0806 65.6519 15.3042 66.1887 15.3042Z" fill="#E6EAF2"/>
<path d="M71.7797 19.5389C71.5809 19.5389 71.407 19.524 71.2579 19.4941C71.1088 19.4643 70.9646 19.4295 70.8255 19.3898L71.1386 18.0478C71.2082 18.0677 71.2877 18.0876 71.3772 18.1074C71.4766 18.1373 71.571 18.1522 71.6605 18.1522C72.0481 18.1522 72.3563 18.0329 72.5849 17.7943C72.8235 17.5657 73.0024 17.2675 73.1217 16.8997L73.2559 16.4375L70.3781 9.20579H72.1227L73.3901 12.7993C73.4994 13.1173 73.6038 13.4553 73.7032 13.8132C73.8126 14.1611 73.9219 14.509 74.0312 14.8569H74.0909C74.1804 14.519 74.2698 14.176 74.3593 13.8281C74.4587 13.4702 74.5531 13.1273 74.6426 12.7993L75.746 9.20579H77.4011L74.747 16.855C74.4388 17.68 74.066 18.3311 73.6287 18.8082C73.1913 19.2953 72.575 19.5389 71.7797 19.5389Z" fill="#E6EAF2"/>
<path d="M84.6523 16.7058C84.0459 16.7058 83.4793 16.5567 82.9525 16.2585C82.4256 15.9504 81.9982 15.513 81.6702 14.9464C81.3421 14.3698 81.1781 13.679 81.1781 12.8738C81.1781 12.0587 81.3421 11.3678 81.6702 10.8012C81.9982 10.2247 82.4256 9.7873 82.9525 9.48909C83.4793 9.18094 84.0459 9.02686 84.6523 9.02686C85.2686 9.02686 85.8402 9.18094 86.367 9.48909C86.8939 9.7873 87.3213 10.2247 87.6493 10.8012C87.9774 11.3678 88.1414 12.0587 88.1414 12.8738C88.1414 13.679 87.9774 14.3698 87.6493 14.9464C87.3213 15.513 86.8939 15.9504 86.367 16.2585C85.8402 16.5567 85.2686 16.7058 84.6523 16.7058ZM84.6523 15.3042C85.1891 15.3042 85.6115 15.0806 85.9197 14.6333C86.2278 14.1859 86.3819 13.5995 86.3819 12.8738C86.3819 12.1382 86.2278 11.5468 85.9197 11.0994C85.6115 10.6521 85.1891 10.4285 84.6523 10.4285C84.1155 10.4285 83.693 10.6521 83.3849 11.0994C83.0867 11.5468 82.9376 12.1382 82.9376 12.8738C82.9376 13.5995 83.0867 14.1859 83.3849 14.6333C83.693 15.0806 84.1155 15.3042 84.6523 15.3042Z" fill="#E6EAF2"/>
<path d="M89.8386 16.5269V9.20579H91.2551L91.3744 10.1899H91.4341C91.7621 9.8718 92.12 9.59844 92.5076 9.36981C92.8953 9.14118 93.3377 9.02686 93.8347 9.02686C94.62 9.02686 95.1916 9.28034 95.5494 9.7873C95.9073 10.2943 96.0862 11.01 96.0862 11.9344V16.5269H94.3715V12.1581C94.3715 11.5517 94.282 11.1243 94.1031 10.8758C93.9241 10.6273 93.6309 10.503 93.2234 10.503C92.9053 10.503 92.622 10.5825 92.3734 10.7416C92.1349 10.8907 91.8615 11.1144 91.5534 11.4126V16.5269H89.8386Z" fill="#E6EAF2"/>
<path d="M101.316 16.5269V6.77535H103.046V10.6969H106.997V6.77535H108.727V16.5269H106.997V12.2028H103.046V16.5269H101.316Z" fill="#E6EAF2"/>
<path d="M111.203 16.5269V6.77535H117.093V8.2366H112.933V10.9951H116.482V12.4563H112.933V16.5269H111.203Z" fill="#E6EAF2"/>
<path d="M124.637 16.7058C123.981 16.7058 123.345 16.5816 122.729 16.3331C122.122 16.0846 121.586 15.7317 121.118 15.2744L122.132 14.0965C122.48 14.4245 122.878 14.6929 123.325 14.9017C123.772 15.1005 124.22 15.1999 124.667 15.1999C125.224 15.1999 125.646 15.0856 125.935 14.8569C126.223 14.6283 126.367 14.3251 126.367 13.9474C126.367 13.5398 126.223 13.2466 125.935 13.0676C125.656 12.8887 125.298 12.7048 124.861 12.516L123.519 11.9344C123.201 11.7953 122.888 11.6163 122.58 11.3977C122.281 11.179 122.033 10.9006 121.834 10.5627C121.645 10.2247 121.551 9.81713 121.551 9.33999C121.551 8.82308 121.69 8.36085 121.968 7.95329C122.257 7.5358 122.644 7.20776 123.131 6.96919C123.628 6.72068 124.195 6.59643 124.831 6.59643C125.398 6.59643 125.944 6.71074 126.471 6.93937C126.998 7.15806 127.45 7.45627 127.828 7.83401L126.948 8.9374C126.64 8.67895 126.312 8.47517 125.964 8.32606C125.626 8.17696 125.249 8.1024 124.831 8.1024C124.374 8.1024 124.001 8.20678 123.713 8.41553C123.434 8.61433 123.295 8.89267 123.295 9.25052C123.295 9.49903 123.365 9.70778 123.504 9.87677C123.653 10.0358 123.847 10.175 124.086 10.2943C124.324 10.4036 124.578 10.513 124.846 10.6223L126.173 11.174C126.75 11.4225 127.222 11.7505 127.59 12.1581C127.957 12.5557 128.141 13.1074 128.141 13.8132C128.141 14.34 128.002 14.8221 127.724 15.2595C127.445 15.6969 127.043 16.0498 126.516 16.3182C125.999 16.5766 125.373 16.7058 124.637 16.7058Z" fill="#E6EAF2"/>
<path d="M129.765 19.4196V9.20579H131.182L131.301 9.98114H131.361C131.669 9.72269 132.012 9.49903 132.39 9.31016C132.777 9.1213 133.17 9.02686 133.568 9.02686C134.482 9.02686 135.188 9.36484 135.685 10.0408C136.192 10.7167 136.445 11.6213 136.445 12.7545C136.445 13.5895 136.296 14.3052 135.998 14.9017C135.7 15.4881 135.312 15.9355 134.835 16.2436C134.368 16.5518 133.861 16.7058 133.314 16.7058C132.996 16.7058 132.678 16.6363 132.36 16.4971C132.042 16.348 131.734 16.1492 131.435 15.9007L131.48 17.1233V19.4196H129.765ZM132.956 15.2893C133.443 15.2893 133.851 15.0756 134.179 14.6482C134.507 14.2207 134.671 13.5945 134.671 12.7694C134.671 12.0338 134.547 11.4623 134.298 11.0547C134.05 10.6472 133.647 10.4434 133.09 10.4434C132.574 10.4434 132.037 10.7167 131.48 11.2635V14.678C131.749 14.8967 132.007 15.0557 132.255 15.1551C132.504 15.2446 132.738 15.2893 132.956 15.2893Z" fill="#E6EAF2"/>
<path d="M139.781 16.7058C139.145 16.7058 138.623 16.507 138.216 16.1094C137.818 15.7118 137.619 15.1949 137.619 14.5587C137.619 13.7734 137.962 13.1671 138.648 12.7396C139.334 12.3022 140.428 12.004 141.929 11.845C141.919 11.4573 141.814 11.1243 141.615 10.846C141.427 10.5577 141.084 10.4136 140.587 10.4136C140.229 10.4136 139.876 10.4831 139.528 10.6223C139.19 10.7615 138.857 10.9305 138.529 11.1293L137.903 9.98114C138.31 9.72269 138.767 9.49903 139.274 9.31016C139.791 9.1213 140.338 9.02686 140.915 9.02686C141.829 9.02686 142.51 9.30022 142.957 9.84695C143.415 10.3837 143.643 11.1641 143.643 12.1879V16.5269H142.227L142.107 15.7217H142.048C141.72 16.0001 141.367 16.2337 140.989 16.4225C140.621 16.6114 140.219 16.7058 139.781 16.7058ZM140.333 15.3639C140.631 15.3639 140.9 15.2943 141.138 15.1551C141.387 15.006 141.65 14.8072 141.929 14.5587V12.9185C140.934 13.0478 140.244 13.2416 139.856 13.5001C139.468 13.7486 139.274 14.0567 139.274 14.4245C139.274 14.7525 139.374 14.9911 139.573 15.1402C139.771 15.2893 140.025 15.3639 140.333 15.3639Z" fill="#E6EAF2"/>
<path d="M148.752 16.7058C148.086 16.7058 147.485 16.5567 146.948 16.2585C146.421 15.9504 145.998 15.513 145.68 14.9464C145.372 14.3698 145.218 13.679 145.218 12.8738C145.218 12.0587 145.387 11.3678 145.725 10.8012C146.063 10.2247 146.51 9.7873 147.067 9.48909C147.634 9.18094 148.24 9.02686 148.886 9.02686C149.353 9.02686 149.761 9.10639 150.109 9.26543C150.457 9.42448 150.765 9.61832 151.033 9.84695L150.198 10.9652C150.009 10.7963 149.816 10.667 149.617 10.5776C149.418 10.4782 149.204 10.4285 148.976 10.4285C148.389 10.4285 147.907 10.6521 147.529 11.0994C147.162 11.5468 146.978 12.1382 146.978 12.8738C146.978 13.5995 147.157 14.1859 147.514 14.6333C147.882 15.0806 148.354 15.3042 148.931 15.3042C149.219 15.3042 149.488 15.2446 149.736 15.1253C149.995 14.9961 150.228 14.847 150.437 14.678L151.138 15.8112C150.8 16.1094 150.422 16.3331 150.004 16.4822C149.587 16.6313 149.169 16.7058 148.752 16.7058Z" fill="#E6EAF2"/>
<path d="M155.35 16.7058C154.674 16.7058 154.063 16.5567 153.516 16.2585C152.969 15.9504 152.537 15.513 152.219 14.9464C151.901 14.3698 151.742 13.679 151.742 12.8738C151.742 12.0786 151.901 11.3927 152.219 10.8161C152.547 10.2396 152.969 9.79724 153.486 9.48909C154.003 9.18094 154.545 9.02686 155.111 9.02686C155.777 9.02686 156.334 9.17597 156.781 9.47418C157.229 9.76245 157.567 10.17 157.795 10.6969C158.024 11.2138 158.138 11.8152 158.138 12.501C158.138 12.8589 158.113 13.1372 158.064 13.336H153.412C153.491 13.9822 153.725 14.4842 154.112 14.842C154.5 15.1999 154.987 15.3788 155.574 15.3788C155.892 15.3788 156.185 15.3341 156.453 15.2446C156.732 15.1452 157.005 15.011 157.273 14.842L157.855 15.9156C157.507 16.1442 157.119 16.3331 156.692 16.4822C156.264 16.6313 155.817 16.7058 155.35 16.7058ZM153.397 12.173H156.647C156.647 11.6064 156.523 11.1641 156.274 10.846C156.026 10.5179 155.653 10.3539 155.156 10.3539C154.729 10.3539 154.346 10.513 154.008 10.831C153.68 11.1392 153.476 11.5865 153.397 12.173Z" fill="#E6EAF2"/>
<path d="M161.819 16.7058C161.322 16.7058 160.825 16.6114 160.328 16.4225C159.831 16.2237 159.403 15.9802 159.045 15.6919L159.851 14.5885C160.179 14.837 160.507 15.0359 160.835 15.185C161.163 15.3341 161.511 15.4086 161.878 15.4086C162.276 15.4086 162.569 15.3241 162.758 15.1551C162.947 14.9862 163.041 14.7774 163.041 14.5289C163.041 14.3201 162.962 14.1512 162.803 14.0219C162.654 13.8828 162.46 13.7635 162.221 13.6641C161.983 13.5547 161.734 13.4504 161.476 13.3509C161.158 13.2317 160.84 13.0875 160.522 12.9185C160.213 12.7396 159.96 12.516 159.761 12.2476C159.562 11.9692 159.463 11.6263 159.463 11.2187C159.463 10.5726 159.701 10.0458 160.179 9.6382C160.656 9.23064 161.302 9.02686 162.117 9.02686C162.634 9.02686 163.096 9.11633 163.504 9.29525C163.911 9.47418 164.264 9.67796 164.562 9.90659L163.772 10.9503C163.514 10.7615 163.25 10.6124 162.982 10.503C162.723 10.3837 162.45 10.3241 162.162 10.3241C161.794 10.3241 161.521 10.4036 161.342 10.5627C161.163 10.7118 161.073 10.9006 161.073 11.1293C161.073 11.4175 161.222 11.6362 161.521 11.7853C161.819 11.9344 162.167 12.0786 162.564 12.2177C162.902 12.337 163.23 12.4861 163.548 12.6651C163.866 12.834 164.13 13.0577 164.339 13.336C164.557 13.6144 164.667 13.9822 164.667 14.4394C164.667 15.0657 164.423 15.6025 163.936 16.0498C163.449 16.4872 162.743 16.7058 161.819 16.7058Z" fill="#E6EAF2"/>
<path d="M16.6387 13.3557V15.7023H18.9808V13.3557H16.6387Z" fill="#FF3270"/>
<path d="M21.3438 13.3557V15.7023H23.6859V13.3557H21.3438Z" fill="#861FFF"/>
<path d="M16.6387 8.64206V10.9886H18.9808V8.64206H16.6387Z" fill="#097EFF"/>
<path fill-rule="evenodd" clip-rule="evenodd" d="M15 8.04206C15 7.46654 15.4657 7 16.0401 7H19.5797C20.0602 7 20.4646 7.32637 20.584 7.7699C21.0874 7.29266 21.767 7 22.5148 7C24.0666 7 25.3247 8.26041 25.3247 9.81518C25.3247 10.5644 25.0326 11.2452 24.5562 11.7496C24.999 11.8693 25.3247 12.2744 25.3247 12.7558V16.3021C25.3247 16.8776 24.859 17.3442 24.2846 17.3442H20.6198H19.7049H16.0401C15.4657 17.3442 15 16.8776 15 16.3021V11.8094V11.7137V8.04206ZM16.6388 8.64191V10.9885H18.981V8.64191H16.6388ZM16.6388 15.7022V13.3556H18.981V15.7022H16.6388ZM21.3437 15.7022V13.3556H23.6859V15.7022H21.3437ZM21.3437 9.81518C21.3437 9.16721 21.8681 8.64191 22.5148 8.64191C23.1616 8.64191 23.6859 9.16721 23.6859 9.81518C23.6859 10.4632 23.1616 10.9885 22.5148 10.9885C21.8681 10.9885 21.3437 10.4632 21.3437 9.81518Z" fill="black"/>
<path d="M22.5149 8.64206C21.8681 8.64206 21.3438 9.16736 21.3438 9.81537C21.3438 10.4633 21.8681 10.9886 22.5149 10.9886C23.1616 10.9886 23.6859 10.4633 23.6859 9.81537C23.6859 9.16736 23.1616 8.64206 22.5149 8.64206Z" fill="#FFD702"/>
<defs>
<linearGradient id="paint0_linear_127_149" x1="-8.84575e-08" y1="12" x2="61.6628" y2="12" gradientUnits="userSpaceOnUse">
<stop stop-color="#F5F9FA"/>
<stop offset="1" stop-color="white"/>
</linearGradient>
<linearGradient id="paint1_linear_127_149" x1="-8.84579e-08" y1="12" x2="72.5551" y2="12" gradientUnits="userSpaceOnUse">
<stop stop-color="#172033"/>
<stop offset="1" stop-color="#0B0F19"/>
</linearGradient>
</defs>
</svg>
